<svg version="1.1" id="Layer_1" xmlns="http://www.w3.org/2000/svg" x="0" y="0" viewBox="0 0 622.5 367.5" xml:space="preserve"><style>.st0{fill:#2a2d34}</style><path class="st0" d="M12 203.7v15.6h20.6v105.1h19V219.3h20.7v-15.6zM71.2 230.1h19v36.1h22.2v-36.1h19v94.3h-19v-41.9H90.2v41.9h-19zM200.6 230.1v15.6h-33.7v22.2h31.7v15.6h-31.7v25.3h35v15.6h-54v-94.3zM243.4 324.4V203.7h19.1v105.1h33.7v15.6zM335.4 312.3c11.2 0 13.1-9.6 13.1-35 0-25.2-1.8-35-13.1-35-11.2 0-13.1 9.8-13.1 35 0 25.3 1.9 35 13.1 35m0-84c28.5 0 32.1 20.3 32.1 49s-3.6 49-32.1 49-32.1-20.3-32.1-49 3.6-49 32.1-49M372.7 230.1H391l10.4 69.8h.3l11.1-69.8H431l11.1 69.8h.3l10.4-69.8H471l-17.2 94.3h-21.2L422 256h-.3l-10.5 68.4h-21.3zM498.1 271.3h7.9c9.1 0 14.3-4 14.3-14.1 0-8.7-4.6-13.1-13.2-13.1h-9v27.2zM479 230.1h35.1c15.6 0 25.1 8.2 25.1 24.3 0 12.5-5 21-15.7 23.2v.3c12.9 1.7 14.9 8.8 15.2 28.8.1 9.9.7 15.1 4.2 16.9v.8h-20.6c-1.9-2.6-2.2-6.2-2.4-9.9l-.5-18.1c-.3-7.4-3.6-11.9-11.2-11.9H498v39.9h-19v-94.3zM586.7 230.1l-13.2 36.5h-.3l-12.4-36.5h-21.4l24.4 57.2v68h19.1v-68l24.4-57.2zM309.7 49.9c-9.7 0-19.2.5-28.3 1.3l30.4 60.7H199l24-48c-30.5 11.4-49.9 28.6-49.9 48 0 34.3 61.1 62.1 136.6 62.1 75.4 0 136.6-27.8 136.6-62.1-.1-34.2-61.2-62-136.6-62"/><path class="st0" d="M255.4 8.5l-49.7 99.4H305z"/></svg>